<svg width="84" height="84" viewBox="0 0 84 84" fill="none" xmlns="http://www.w3.org/2000/svg">
<g clip-path="url(#clip0_281_8176)" filter="url(#filter0_dd_281_8176)">
<path d="M27.1458 1.52051H56.8542C61.3583 1.52051 65 5.16218 65 9.66633V38.2247C65 42.7288 61.3583 46.3705 56.8542 46.3705H27.1458C22.6417 46.3705 19 42.7288 19 38.2247V9.66633C19 5.16218 22.6417 1.52051 27.1458 1.52051Z" fill="#330000"/>
<path d="M41.2909 28.4306H34.1609L32.7042 32.9348C32.6659 33.1073 32.5125 33.2223 32.34 33.2031H28.7367C28.5259 33.2031 28.4684 33.0881 28.5259 32.8581L34.6975 15.0906C34.755 14.899 34.8125 14.6881 34.8892 14.4581C34.9658 14.0556 35.0042 13.634 35.0042 13.2123C34.985 13.1165 35.0617 13.0206 35.1575 13.0015C35.1767 13.0015 35.1959 13.0015 35.215 13.0015H40.1217C40.275 13.0015 40.3517 13.059 40.3709 13.1548L47.3667 32.8964C47.4242 33.1073 47.3667 33.2031 47.175 33.2031H43.1692C43.035 33.2223 42.9009 33.1264 42.8625 32.9923L41.2909 28.4306ZM35.2725 24.5398H40.1409C40.0259 24.1373 39.8725 23.6581 39.7 23.1598C39.5275 22.6423 39.355 22.0865 39.1825 21.5115C38.9909 20.9173 38.8183 20.3423 38.6267 19.7481C38.435 19.154 38.2625 18.5981 38.1092 18.0423C37.9558 17.5056 37.8217 17.0073 37.6875 16.5473H37.6492C37.4767 17.3715 37.2659 18.1956 36.9975 19.0198C36.71 19.9398 36.4225 20.8981 36.1159 21.8565C35.8475 22.834 35.56 23.7348 35.2725 24.5398Z" fill="#FF9A00"/>
<path d="M51.545 16.2791C50.9125 16.2983 50.2992 16.0491 49.8392 15.6083C49.3984 15.1291 49.1684 14.4966 49.1875 13.8449C49.1684 13.1933 49.4175 12.5799 49.8775 12.1391C50.3375 11.6983 50.9509 11.4683 51.5834 11.4683C52.3309 11.4683 52.9059 11.6983 53.3275 12.1391C53.7492 12.5991 53.9792 13.2124 53.96 13.8449C53.9792 14.4966 53.7492 15.1291 53.2892 15.6083C52.8484 16.0683 52.1967 16.3174 51.545 16.2791ZM49.3984 32.9158V18.1574C49.3984 17.9658 49.475 17.8891 49.6475 17.8891H53.4425C53.615 17.8891 53.6917 17.9849 53.6917 18.1574V32.9158C53.6917 33.1266 53.615 33.2224 53.4425 33.2224H49.6859C49.4942 33.2224 49.3984 33.1074 49.3984 32.9158Z" fill="#FF9A00"/>
</g>
<defs>
<filter id="filter0_dd_281_8176" x="0" y="0.0605469" width="84" height="84" filterUnits="userSpaceOnUse" color-interpolation-filters="sRGB">
<feFlood flood-opacity="0" result="BackgroundImageFix"/>
<feColorMatrix in="SourceAlpha" type="matrix" values="0 0 0 0 0 0 0 0 0 0 0 0 0 0 0 0 0 0 127 0" result="hardAlpha"/>
<feMorphology radius="5" operator="erode" in="SourceAlpha" result="effect1_dropShadow_281_8176"/>
<feOffset dy="8"/>
<feGaussianBlur stdDeviation="4"/>
<feColorMatrix type="matrix" values="0 0 0 0 0.0784314 0 0 0 0 0.0823529 0 0 0 0 0.101961 0 0 0 0.05 0"/>
<feBlend mode="normal" in2="BackgroundImageFix" result="effect1_dropShadow_281_8176"/>
<feColorMatrix in="SourceAlpha" type="matrix" values="0 0 0 0 0 0 0 0 0 0 0 0 0 0 0 0 0 0 127 0" result="hardAlpha"/>
<feMorphology radius="5" operator="erode" in="SourceAlpha" result="effect2_dropShadow_281_8176"/>
<feOffset dy="18"/>
<feGaussianBlur stdDeviation="12"/>
<feColorMatrix type="matrix" values="0 0 0 0 0.0784314 0 0 0 0 0.0823529 0 0 0 0 0.101961 0 0 0 0.1 0"/>
<feBlend mode="normal" in2="effect1_dropShadow_281_8176" result="effect2_dropShadow_281_8176"/>
<feBlend mode="normal" in="SourceGraphic" in2="effect2_dropShadow_281_8176" result="shape"/>
</filter>
<clipPath id="clip0_281_8176">
<rect width="46" height="46" fill="white" transform="translate(19 1.06055)"/>
</clipPath>
</defs>
</svg>
