<svg width="168" height="129" viewBox="0 0 168 129" fill="none" xmlns="http://www.w3.org/2000/svg">
<path fill-rule="evenodd" clip-rule="evenodd" d="M100.869 50.9488L91.8368 72.4968C90.8441 74.8652 87.3477 74.3611 87.0681 71.8087L85.838 60.6948C85.7929 60.2872 85.6478 59.897 85.4155 59.559C85.1832 59.2211 84.871 58.9457 84.5066 58.7575C84.1423 58.5694 83.737 58.4742 83.327 58.4804C82.9169 58.4866 82.5148 58.5941 82.1563 58.7933L52.5919 80.6588C50.5269 81.8054 48.1758 79.6968 49.089 77.5209L70.5518 48.2637C70.7103 47.8855 70.7729 47.4741 70.734 47.0659C70.6952 46.6577 70.5561 46.2655 70.329 45.924C70.102 45.5826 69.7942 45.3025 69.4328 45.1088C69.0715 44.915 68.6678 44.8135 68.2578 44.8134L56.9143 44.8102C54.3491 44.8102 53.4621 41.3927 55.7067 40.146L76.1363 28.7993C76.5884 28.5478 77.1077 28.4435 77.6218 28.501C78.136 28.5585 78.6194 28.7748 79.0049 29.1199L100.232 48.1322C100.618 48.4771 100.887 48.9338 101.001 49.4386C101.115 49.9435 101.069 50.4714 100.869 50.9488Z" fill="#111111"/>
<path fill-rule="evenodd" clip-rule="evenodd" d="M118.676 15.617L109.486 37.5344C108.057 40.9423 103.695 41.9261 100.942 39.4583L89.3511 29.0807C86.598 26.6148 87.0963 22.1699 90.3278 20.3755L111.106 8.83772C115.57 6.36034 120.649 10.9104 118.676 15.617Z" fill="#111111"/>
<path d="M13.5 98.9819L15.2342 103.491C15.5162 104.224 15.6572 104.591 15.8765 104.899C16.0708 105.172 16.3096 105.411 16.5829 105.605C16.8913 105.825 17.2579 105.966 17.9911 106.248L22.5 107.982L17.9911 109.716C17.2579 109.998 16.8913 110.139 16.5829 110.358C16.3096 110.553 16.0708 110.792 15.8765 111.065C15.6572 111.373 15.5162 111.74 15.2342 112.473L13.5 116.982L11.7658 112.473C11.4838 111.74 11.3428 111.373 11.1235 111.065C10.9292 110.792 10.6904 110.553 10.4171 110.358C10.1087 110.139 9.74209 109.998 9.00886 109.716L4.5 107.982L9.00886 106.248C9.74209 105.966 10.1087 105.825 10.4171 105.605C10.6904 105.411 10.9292 105.172 11.1235 104.899C11.3428 104.591 11.4838 104.224 11.7658 103.491L13.5 98.9819Z" fill="#946CFF"/>
<path d="M5 117.982V112.982M5 102.982V97.9819M2.5 100.482H7.5M2.5 115.482H7.5M13.5 98.9819L11.7658 103.491C11.4838 104.224 11.3428 104.591 11.1235 104.899C10.9292 105.172 10.6904 105.411 10.4171 105.605C10.1087 105.825 9.74209 105.966 9.00886 106.248L4.5 107.982L9.00886 109.716C9.74209 109.998 10.1087 110.139 10.4171 110.358C10.6904 110.553 10.9292 110.792 11.1235 111.065C11.3428 111.373 11.4838 111.74 11.7658 112.473L13.5 116.982L15.2342 112.473C15.5162 111.74 15.6572 111.373 15.8765 111.065C16.0708 110.792 16.3096 110.553 16.5829 110.358C16.8913 110.139 17.2579 109.998 17.9911 109.716L22.5 107.982L17.9911 106.248C17.2579 105.966 16.8913 105.825 16.5829 105.605C16.3096 105.411 16.0708 105.172 15.8765 104.899C15.6572 104.591 15.5162 104.224 15.2342 103.491L13.5 98.9819Z" stroke="#946CFF" stroke-width="2" stroke-linecap="round" stroke-linejoin="round"/>
<path d="M38.0682 113.982L39.9773 102.346H41.1136L39.2045 113.982H38.0682ZM32.7727 110.755L32.9545 109.618H41.6364L41.4545 110.755H32.7727ZM33.9773 113.982L35.8864 102.346H37.0227L35.1136 113.982H33.9773ZM33.4545 106.709L33.6364 105.573H42.3182L42.1364 106.709H33.4545ZM48.0619 113.982L49.971 102.346H51.1074L49.1983 113.982H48.0619ZM42.7665 110.755L42.9483 109.618H51.6301L51.4483 110.755H42.7665ZM43.971 113.982L45.8801 102.346H47.0165L45.1074 113.982H43.971ZM43.4483 106.709L43.6301 105.573H52.3119L52.1301 106.709H43.4483ZM53.8966 113.982V102.346H57.8284C58.7375 102.346 59.4837 102.501 60.067 102.811C60.6504 103.118 61.0822 103.541 61.3625 104.079C61.6428 104.616 61.783 105.228 61.783 105.914C61.783 106.599 61.6428 107.207 61.3625 107.738C61.0822 108.268 60.6523 108.685 60.0727 108.988C59.4932 109.287 58.7527 109.436 57.8511 109.436H54.6693V108.164H57.8057C58.4269 108.164 58.9269 108.073 59.3057 107.891C59.6883 107.709 59.9648 107.452 60.1352 107.118C60.3095 106.781 60.3966 106.38 60.3966 105.914C60.3966 105.448 60.3095 105.041 60.1352 104.692C59.961 104.344 59.6826 104.075 59.3 103.885C58.9174 103.692 58.4117 103.596 57.783 103.596H55.3057V113.982H53.8966ZM59.3739 108.755L62.2375 113.982H60.6011L57.783 108.755H59.3739ZM67.4145 114.164C66.5736 114.164 65.8482 113.978 65.2384 113.607C64.6323 113.232 64.1645 112.709 63.8349 112.039C63.5092 111.365 63.3463 110.58 63.3463 109.686C63.3463 108.793 63.5092 108.005 63.8349 107.323C64.1645 106.637 64.6228 106.103 65.2099 105.721C65.8009 105.334 66.4902 105.141 67.2781 105.141C67.7327 105.141 68.1815 105.217 68.6247 105.368C69.0679 105.52 69.4713 105.766 69.8349 106.107C70.1986 106.444 70.4884 106.891 70.7043 107.448C70.9202 108.005 71.0281 108.69 71.0281 109.505V110.073H64.3009V108.914H69.6645C69.6645 108.421 69.566 107.982 69.369 107.596C69.1759 107.209 68.8993 106.904 68.5395 106.681C68.1834 106.457 67.763 106.346 67.2781 106.346C66.744 106.346 66.2819 106.478 65.8918 106.743C65.5054 107.005 65.2081 107.346 64.9997 107.766C64.7914 108.186 64.6872 108.637 64.6872 109.118V109.891C64.6872 110.55 64.8009 111.109 65.0281 111.567C65.2592 112.022 65.5793 112.368 65.9884 112.607C66.3974 112.842 66.8728 112.959 67.4145 112.959C67.7668 112.959 68.0849 112.91 68.369 112.811C68.6569 112.709 68.905 112.558 69.1134 112.357C69.3217 112.152 69.4827 111.899 69.5963 111.596L70.8918 111.959C70.7554 112.399 70.5262 112.785 70.2043 113.118C69.8823 113.448 69.4846 113.705 69.0111 113.891C68.5376 114.073 68.0054 114.164 67.4145 114.164ZM76.2634 114.164C75.5361 114.164 74.894 113.98 74.3372 113.613C73.7804 113.241 73.3448 112.719 73.0304 112.044C72.716 111.366 72.5588 110.565 72.5588 109.641C72.5588 108.724 72.716 107.929 73.0304 107.255C73.3448 106.58 73.7823 106.06 74.3429 105.692C74.9035 105.325 75.5512 105.141 76.2861 105.141C76.8543 105.141 77.3031 105.236 77.6327 105.425C77.966 105.611 78.2198 105.823 78.394 106.061C78.5721 106.296 78.7103 106.49 78.8088 106.641H78.9224V102.346H80.2634V113.982H78.9679V112.641H78.8088C78.7103 112.8 78.5702 113.001 78.3884 113.243C78.2065 113.482 77.9471 113.696 77.6099 113.885C77.2728 114.071 76.824 114.164 76.2634 114.164ZM76.4452 112.959C76.983 112.959 77.4376 112.819 77.8088 112.539C78.18 112.255 78.4622 111.863 78.6554 111.363C78.8486 110.859 78.9452 110.277 78.9452 109.618C78.9452 108.967 78.8505 108.397 78.6611 107.908C78.4717 107.416 78.1914 107.033 77.8202 106.76C77.449 106.484 76.9906 106.346 76.4452 106.346C75.877 106.346 75.4035 106.491 75.0247 106.783C74.6497 107.071 74.3675 107.463 74.1781 107.959C73.9925 108.452 73.8997 109.005 73.8997 109.618C73.8997 110.24 73.9944 110.804 74.1838 111.311C74.377 111.815 74.6611 112.217 75.0361 112.516C75.4149 112.811 75.8846 112.959 76.4452 112.959ZM86.6918 105.255V106.391H81.9872V105.255H86.6918ZM83.3963 113.982V104.05C83.3963 103.55 83.5137 103.133 83.7486 102.8C83.9834 102.467 84.2884 102.217 84.6634 102.05C85.0384 101.883 85.4342 101.8 85.8509 101.8C86.1804 101.8 86.4493 101.827 86.6577 101.88C86.866 101.933 87.0213 101.982 87.1236 102.027L86.7372 103.186C86.669 103.164 86.5743 103.135 86.4531 103.101C86.3357 103.067 86.1804 103.05 85.9872 103.05C85.544 103.05 85.224 103.162 85.027 103.385C84.8338 103.609 84.7372 103.936 84.7372 104.368V113.982H83.3963ZM88.471 113.982V105.255H89.8119V113.982H88.471ZM89.1528 103.8C88.8915 103.8 88.6661 103.711 88.4767 103.533C88.2911 103.355 88.1983 103.141 88.1983 102.891C88.1983 102.641 88.2911 102.427 88.4767 102.249C88.6661 102.071 88.8915 101.982 89.1528 101.982C89.4142 101.982 89.6377 102.071 89.8233 102.249C90.0127 102.427 90.1074 102.641 90.1074 102.891C90.1074 103.141 90.0127 103.355 89.8233 103.533C89.6377 103.711 89.4142 103.8 89.1528 103.8ZM93.5088 108.732V113.982H92.1679V105.255H93.4634V106.618H93.577C93.7815 106.175 94.0921 105.819 94.5088 105.55C94.9255 105.277 95.4634 105.141 96.1224 105.141C96.7134 105.141 97.2304 105.262 97.6736 105.505C98.1168 105.743 98.4615 106.107 98.7077 106.596C98.9539 107.08 99.077 107.694 99.077 108.436V113.982H97.7361V108.527C97.7361 107.842 97.558 107.308 97.202 106.925C96.8459 106.539 96.3573 106.346 95.7361 106.346C95.308 106.346 94.9255 106.438 94.5884 106.624C94.255 106.81 93.9918 107.08 93.7986 107.436C93.6054 107.793 93.5088 108.224 93.5088 108.732ZM101.427 113.982V105.255H102.768V113.982H101.427ZM102.109 103.8C101.848 103.8 101.622 103.711 101.433 103.533C101.247 103.355 101.155 103.141 101.155 102.891C101.155 102.641 101.247 102.427 101.433 102.249C101.622 102.071 101.848 101.982 102.109 101.982C102.37 101.982 102.594 102.071 102.78 102.249C102.969 102.427 103.064 102.641 103.064 102.891C103.064 103.141 102.969 103.355 102.78 103.533C102.594 103.711 102.37 103.8 102.109 103.8ZM106.465 108.732V113.982H105.124V105.255H106.42V106.618H106.533C106.738 106.175 107.048 105.819 107.465 105.55C107.882 105.277 108.42 105.141 109.079 105.141C109.67 105.141 110.187 105.262 110.63 105.505C111.073 105.743 111.418 106.107 111.664 106.596C111.91 107.08 112.033 107.694 112.033 108.436V113.982H110.692V108.527C110.692 107.842 110.514 107.308 110.158 106.925C109.802 106.539 109.314 106.346 108.692 106.346C108.264 106.346 107.882 106.438 107.545 106.624C107.211 106.81 106.948 107.08 106.755 107.436C106.562 107.793 106.465 108.224 106.465 108.732ZM117.906 117.436C117.259 117.436 116.702 117.353 116.236 117.186C115.77 117.024 115.382 116.808 115.071 116.539C114.764 116.274 114.52 115.99 114.338 115.686L115.406 114.936C115.527 115.096 115.681 115.277 115.866 115.482C116.052 115.69 116.306 115.87 116.628 116.022C116.954 116.177 117.38 116.255 117.906 116.255C118.611 116.255 119.192 116.084 119.651 115.743C120.109 115.402 120.338 114.868 120.338 114.141V112.368H120.224C120.126 112.527 119.986 112.724 119.804 112.959C119.626 113.19 119.368 113.397 119.031 113.579C118.698 113.757 118.247 113.846 117.679 113.846C116.974 113.846 116.342 113.679 115.781 113.346C115.224 113.012 114.783 112.527 114.457 111.891C114.135 111.255 113.974 110.482 113.974 109.573C113.974 108.679 114.132 107.9 114.446 107.238C114.76 106.571 115.198 106.056 115.759 105.692C116.319 105.325 116.967 105.141 117.702 105.141C118.27 105.141 118.721 105.236 119.054 105.425C119.391 105.611 119.649 105.823 119.827 106.061C120.009 106.296 120.149 106.49 120.247 106.641H120.384V105.255H121.679V114.232C121.679 114.982 121.509 115.592 121.168 116.061C120.83 116.535 120.376 116.882 119.804 117.101C119.236 117.325 118.603 117.436 117.906 117.436ZM117.861 112.641C118.399 112.641 118.853 112.518 119.224 112.272C119.596 112.025 119.878 111.671 120.071 111.209C120.264 110.747 120.361 110.194 120.361 109.55C120.361 108.921 120.266 108.366 120.077 107.885C119.887 107.404 119.607 107.027 119.236 106.755C118.865 106.482 118.406 106.346 117.861 106.346C117.293 106.346 116.819 106.49 116.44 106.777C116.065 107.065 115.783 107.452 115.594 107.936C115.408 108.421 115.315 108.959 115.315 109.55C115.315 110.156 115.41 110.692 115.599 111.158C115.793 111.62 116.077 111.984 116.452 112.249C116.83 112.51 117.3 112.641 117.861 112.641ZM124.215 113.982V102.346H125.624V112.732H131.034V113.982H124.215ZM132.934 113.982V105.255H134.274V113.982H132.934ZM133.615 103.8C133.354 103.8 133.129 103.711 132.939 103.533C132.754 103.355 132.661 103.141 132.661 102.891C132.661 102.641 132.754 102.427 132.939 102.249C133.129 102.071 133.354 101.982 133.615 101.982C133.877 101.982 134.1 102.071 134.286 102.249C134.475 102.427 134.57 102.641 134.57 102.891C134.57 103.141 134.475 103.355 134.286 103.533C134.1 103.711 133.877 103.8 133.615 103.8ZM136.63 113.982V105.255H137.926V106.618H138.039C138.221 106.152 138.515 105.791 138.92 105.533C139.325 105.272 139.812 105.141 140.38 105.141C140.956 105.141 141.435 105.272 141.818 105.533C142.204 105.791 142.505 106.152 142.721 106.618H142.812C143.036 106.168 143.371 105.81 143.818 105.544C144.265 105.275 144.801 105.141 145.426 105.141C146.206 105.141 146.844 105.385 147.341 105.874C147.837 106.359 148.085 107.115 148.085 108.141V113.982H146.744V108.141C146.744 107.497 146.568 107.037 146.216 106.76C145.863 106.484 145.449 106.346 144.971 106.346C144.358 106.346 143.882 106.531 143.545 106.902C143.208 107.27 143.039 107.736 143.039 108.3V113.982H141.676V108.005C141.676 107.508 141.515 107.109 141.193 106.806C140.871 106.499 140.456 106.346 139.949 106.346C139.6 106.346 139.274 106.438 138.971 106.624C138.672 106.81 138.43 107.067 138.244 107.397C138.062 107.722 137.971 108.099 137.971 108.527V113.982H136.63ZM150.437 113.982V105.255H151.778V113.982H150.437ZM151.118 103.8C150.857 103.8 150.632 103.711 150.442 103.533C150.257 103.355 150.164 103.141 150.164 102.891C150.164 102.641 150.257 102.427 150.442 102.249C150.632 102.071 150.857 101.982 151.118 101.982C151.38 101.982 151.603 102.071 151.789 102.249C151.978 102.427 152.073 102.641 152.073 102.891C152.073 103.141 151.978 103.355 151.789 103.533C151.603 103.711 151.38 103.8 151.118 103.8ZM157.929 105.255V106.391H153.406V105.255H157.929ZM154.724 103.164H156.065V111.482C156.065 111.861 156.12 112.145 156.23 112.334C156.344 112.52 156.488 112.645 156.662 112.709C156.84 112.77 157.027 112.8 157.224 112.8C157.372 112.8 157.493 112.793 157.588 112.777C157.683 112.758 157.759 112.743 157.815 112.732L158.088 113.936C157.997 113.971 157.87 114.005 157.707 114.039C157.545 114.077 157.338 114.096 157.088 114.096C156.709 114.096 156.338 114.014 155.974 113.851C155.615 113.688 155.315 113.44 155.077 113.107C154.842 112.774 154.724 112.353 154.724 111.846V103.164ZM165.872 107.209L164.667 107.55C164.591 107.349 164.48 107.154 164.332 106.965C164.188 106.772 163.991 106.613 163.741 106.488C163.491 106.363 163.171 106.3 162.781 106.3C162.247 106.3 161.802 106.423 161.445 106.669C161.093 106.912 160.917 107.221 160.917 107.596C160.917 107.929 161.038 108.192 161.281 108.385C161.523 108.579 161.902 108.74 162.417 108.868L163.713 109.186C164.493 109.376 165.074 109.666 165.457 110.056C165.839 110.442 166.031 110.94 166.031 111.55C166.031 112.05 165.887 112.497 165.599 112.891C165.315 113.285 164.917 113.596 164.406 113.823C163.894 114.05 163.3 114.164 162.622 114.164C161.731 114.164 160.995 113.971 160.411 113.584C159.828 113.198 159.459 112.633 159.303 111.891L160.576 111.573C160.697 112.043 160.927 112.395 161.264 112.63C161.605 112.865 162.05 112.982 162.599 112.982C163.224 112.982 163.72 112.849 164.088 112.584C164.459 112.315 164.644 111.993 164.644 111.618C164.644 111.315 164.538 111.061 164.326 110.857C164.114 110.649 163.788 110.493 163.349 110.391L161.894 110.05C161.095 109.861 160.508 109.567 160.133 109.169C159.762 108.768 159.576 108.266 159.576 107.664C159.576 107.171 159.714 106.736 159.991 106.357C160.271 105.978 160.652 105.681 161.133 105.465C161.618 105.249 162.167 105.141 162.781 105.141C163.644 105.141 164.322 105.33 164.815 105.709C165.311 106.088 165.663 106.588 165.872 107.209Z" fill="#111111"/>
</svg>
