<svg width="73" height="38" viewBox="0 0 73 38" fill="none" xmlns="http://www.w3.org/2000/svg">
<g clip-path="url(#clip0_281_8152)">
<g clip-path="url(#clip1_281_8152)">
<path d="M8.944 10.3033C9.174 9.70635 9.646 9.23435 10.243 9.00435L13.737 7.65435C14.768 7.25635 14.749 5.79135 13.709 5.42035L3.094 1.63135C2.147 1.29335 1.233 2.20735 1.571 3.15435L5.36 13.7693C5.731 14.8093 7.196 14.8283 7.594 13.7973L8.944 10.3033Z" fill="#D4BE4C" stroke="white" stroke-miterlimit="10"/>
</g>
</g>
<rect x="12" y="15.5605" width="61" height="22" rx="2" fill="#D4BE4C"/>
<path d="M19.1186 31.5605V21.3787H22.8473C23.5698 21.3787 24.1681 21.498 24.642 21.7367C25.116 21.972 25.4706 22.2918 25.706 22.6962C25.9413 23.0972 26.0589 23.5497 26.0589 24.0534C26.0589 24.4777 25.9811 24.8356 25.8253 25.1273C25.6695 25.4157 25.4607 25.6477 25.1989 25.8233C24.9403 25.9957 24.6553 26.1216 24.3438 26.2012V26.3006C24.6818 26.3172 25.0116 26.4266 25.3331 26.6287C25.6579 26.8276 25.9264 27.111 26.1385 27.4789C26.3506 27.8468 26.4567 28.2942 26.4567 28.8212C26.4567 29.3416 26.334 29.8089 26.0888 30.2232C25.8468 30.6342 25.4723 30.9606 24.9652 31.2026C24.4581 31.4412 23.8101 31.5605 23.0213 31.5605H19.1186ZM20.6548 30.2431H22.8722C23.608 30.2431 24.1349 30.1006 24.4531 29.8155C24.7713 29.5305 24.9304 29.1742 24.9304 28.7466C24.9304 28.4251 24.8492 28.1301 24.6868 27.8617C24.5244 27.5932 24.2924 27.3794 23.9908 27.2203C23.6925 27.0613 23.3378 26.9817 22.9268 26.9817H20.6548V30.2431ZM20.6548 25.7836H22.7131C23.0578 25.7836 23.3677 25.7173 23.6428 25.5847C23.9212 25.4521 24.1416 25.2665 24.304 25.0279C24.4697 24.7859 24.5526 24.5009 24.5526 24.1728C24.5526 23.7518 24.4051 23.3989 24.1101 23.1138C23.8151 22.8288 23.3627 22.6863 22.7528 22.6863H20.6548V25.7836ZM32.9128 28.3936V23.9242H34.4043V31.5605H32.9426V30.2381H32.8631C32.6874 30.6458 32.4057 30.9855 32.0179 31.2573C31.6334 31.5257 31.1545 31.66 30.5811 31.66C30.0906 31.66 29.6564 31.5523 29.2786 31.3368C28.904 31.1181 28.6091 30.7949 28.3936 30.3674C28.1815 29.9398 28.0754 29.4112 28.0754 28.7814V23.9242H29.562V28.6025C29.562 29.1228 29.7061 29.5371 29.9945 29.8453C30.2828 30.1536 30.6574 30.3077 31.1181 30.3077C31.3965 30.3077 31.6732 30.2381 31.9483 30.0989C32.2267 29.9597 32.4571 29.7492 32.6394 29.4675C32.825 29.1858 32.9161 28.8278 32.9128 28.3936ZM42.0399 25.7885L40.6926 26.0272C40.6363 25.8548 40.5468 25.6908 40.4242 25.535C40.3048 25.3792 40.1424 25.2516 39.9369 25.1522C39.7314 25.0527 39.4746 25.003 39.1663 25.003C38.7454 25.003 38.3941 25.0975 38.1124 25.2864C37.8306 25.472 37.6898 25.7123 37.6898 26.0073C37.6898 26.2625 37.7842 26.468 37.9732 26.6238C38.1621 26.7795 38.467 26.9071 38.8879 27.0066L40.101 27.285C40.8037 27.4474 41.3273 27.6976 41.672 28.0357C42.0167 28.3738 42.1891 28.8129 42.1891 29.3532C42.1891 29.8105 42.0565 30.2182 41.7913 30.5762C41.5295 30.9308 41.1633 31.2092 40.6926 31.4114C40.2253 31.6136 39.6834 31.7147 39.0669 31.7147C38.2118 31.7147 37.5141 31.5324 36.9739 31.1678C36.4336 30.7999 36.1022 30.2779 35.9796 29.6017L37.4163 29.383C37.5058 29.7575 37.6898 30.0409 37.9682 30.2331C38.2466 30.4221 38.6095 30.5165 39.057 30.5165C39.5442 30.5165 39.9336 30.4154 40.2253 30.2132C40.517 30.0078 40.6628 29.7575 40.6628 29.4625C40.6628 29.2239 40.5733 29.0234 40.3943 28.861C40.2187 28.6986 39.9485 28.5759 39.584 28.4931L38.2913 28.2097C37.5787 28.0473 37.0518 27.7888 36.7104 27.4341C36.3723 27.0795 36.2033 26.6304 36.2033 26.0868C36.2033 25.6361 36.3292 25.2417 36.5811 24.9036C36.833 24.5655 37.181 24.302 37.6251 24.1131C38.0693 23.9209 38.578 23.8248 39.1514 23.8248C39.9767 23.8248 40.6263 24.0037 41.1003 24.3617C41.5742 24.7163 41.8875 25.1919 42.0399 25.7885ZM45.9618 31.7296C45.4779 31.7296 45.0404 31.6401 44.6493 31.4611C44.2582 31.2788 43.9483 31.0153 43.7196 30.6706C43.4942 30.3259 43.3815 29.9033 43.3815 29.4029C43.3815 28.972 43.4644 28.6174 43.6301 28.339C43.7958 28.0605 44.0195 27.8401 44.3013 27.6777C44.583 27.5153 44.8979 27.3927 45.2459 27.3098C45.5939 27.227 45.9485 27.164 46.3098 27.1209C46.7672 27.0679 47.1384 27.0248 47.4234 26.9917C47.7085 26.9552 47.9156 26.8972 48.0449 26.8176C48.1741 26.7381 48.2388 26.6088 48.2388 26.4299V26.3951C48.2388 25.9609 48.1161 25.6245 47.8709 25.3858C47.6289 25.1472 47.2676 25.0279 46.7871 25.0279C46.2866 25.0279 45.8922 25.1389 45.6038 25.361C45.3188 25.5797 45.1216 25.8233 45.0122 26.0918L43.6152 25.7736C43.7809 25.3096 44.0229 24.9351 44.341 24.65C44.6625 24.3617 45.0321 24.1529 45.4497 24.0236C45.8673 23.891 46.3065 23.8248 46.7672 23.8248C47.0721 23.8248 47.3953 23.8612 47.7366 23.9341C48.0813 24.0037 48.4028 24.133 48.7011 24.3219C49.0027 24.5108 49.2497 24.781 49.4419 25.1323C49.6341 25.4803 49.7302 25.9327 49.7302 26.4895V31.5605H48.2785V30.5165H48.2189C48.1228 30.7087 47.9786 30.8977 47.7864 31.0833C47.5941 31.2689 47.3472 31.423 47.0456 31.5456C46.744 31.6683 46.3827 31.7296 45.9618 31.7296ZM46.2849 30.5364C46.6959 30.5364 47.0472 30.4552 47.3389 30.2928C47.6339 30.1304 47.8576 29.9183 48.0101 29.6564C48.1658 29.3913 48.2437 29.1079 48.2437 28.8063V27.8219C48.1907 27.8749 48.088 27.9247 47.9355 27.9711C47.7864 28.0141 47.6157 28.0523 47.4234 28.0854C47.2312 28.1152 47.0439 28.1434 46.8616 28.1699C46.6793 28.1931 46.5269 28.213 46.4042 28.2296C46.1159 28.266 45.8524 28.3274 45.6138 28.4135C45.3784 28.4997 45.1895 28.624 45.047 28.7864C44.9078 28.9455 44.8382 29.1576 44.8382 29.4228C44.8382 29.7907 44.9741 30.0691 45.2459 30.258C45.5176 30.4436 45.864 30.5364 46.2849 30.5364ZM52.2924 34.4242C52.0703 34.4242 51.8681 34.406 51.6858 34.3695C51.5035 34.3364 51.3677 34.2999 51.2782 34.2601L51.6361 33.0421C51.9079 33.115 52.1499 33.1465 52.362 33.1365C52.5741 33.1266 52.7614 33.0471 52.9238 32.8979C53.0895 32.7488 53.2353 32.5051 53.3613 32.1671L53.5452 31.66L50.7512 23.9242H52.3421L54.276 29.8503H54.3556L56.2895 23.9242H57.8854L54.7384 32.5797C54.5926 32.9775 54.407 33.3139 54.1816 33.589C53.9562 33.8674 53.6877 34.0762 53.3762 34.2154C53.0646 34.3546 52.7034 34.4242 52.2924 34.4242ZM62.1553 31.7147C61.4394 31.7147 60.8146 31.5506 60.281 31.2225C59.7474 30.8944 59.3331 30.4353 59.0381 29.8453C58.7431 29.2554 58.5956 28.566 58.5956 27.7772C58.5956 26.985 58.7431 26.2923 59.0381 25.699C59.3331 25.1058 59.7474 24.6451 60.281 24.3169C60.8146 23.9888 61.4394 23.8248 62.1553 23.8248C62.8712 23.8248 63.496 23.9888 64.0296 24.3169C64.5632 24.6451 64.9775 25.1058 65.2725 25.699C65.5675 26.2923 65.7149 26.985 65.7149 27.7772C65.7149 28.566 65.5675 29.2554 65.2725 29.8453C64.9775 30.4353 64.5632 30.8944 64.0296 31.2225C63.496 31.5506 62.8712 31.7147 62.1553 31.7147ZM62.1603 30.4668C62.6243 30.4668 63.0087 30.3442 63.3137 30.0989C63.6186 29.8536 63.844 29.5272 63.9898 29.1195C64.139 28.7118 64.2135 28.2627 64.2135 27.7722C64.2135 27.285 64.139 26.8375 63.9898 26.4299C63.844 26.0189 63.6186 25.6891 63.3137 25.4405C63.0087 25.1919 62.6243 25.0676 62.1603 25.0676C61.6929 25.0676 61.3051 25.1919 60.9969 25.4405C60.692 25.6891 60.4649 26.0189 60.3158 26.4299C60.17 26.8375 60.097 27.285 60.097 27.7722C60.097 28.2627 60.17 28.7118 60.3158 29.1195C60.4649 29.5272 60.692 29.8536 60.9969 30.0989C61.3051 30.3442 61.6929 30.4668 62.1603 30.4668Z" fill="white"/>
<defs>
<clipPath id="clip0_281_8152">
<rect width="15" height="15" fill="white" transform="translate(0 0.0605469)"/>
</clipPath>
<clipPath id="clip1_281_8152">
<rect width="15" height="15" fill="white" transform="translate(0 0.0605469)"/>
</clipPath>
</defs>
</svg>
