<svg width="23" height="23" viewBox="0 0 23 23" fill="none" xmlns="http://www.w3.org/2000/svg">
<path d="M3.83335 13.0605L5.40799 19.3591C5.45228 19.5363 5.47442 19.6248 5.50061 19.7022C5.75651 20.4577 6.43686 20.9889 7.23186 21.0539C7.31325 21.0605 7.40454 21.0605 7.58713 21.0605C7.81578 21.0605 7.93011 21.0605 8.02642 21.0512C8.97834 20.9589 9.73168 20.2055 9.82401 19.2536C9.83335 19.1573 9.83335 19.043 9.83335 18.8143V4.56055M18.3333 12.5605C20.2663 12.5605 21.8333 10.9935 21.8333 9.06055C21.8333 7.12755 20.2663 5.56055 18.3333 5.56055M10.0833 4.56055H6.33334C3.84806 4.56055 1.83334 6.57527 1.83334 9.06055C1.83335 11.5458 3.84806 13.5605 6.33334 13.5605H10.0833C11.8498 13.5605 14.0106 14.5074 15.6776 15.4162C16.6502 15.9463 17.1364 16.2114 17.4549 16.1724C17.7502 16.1362 17.9736 16.0036 18.1467 15.7617C18.3333 15.5007 18.3333 14.9786 18.3333 13.9343V4.18683C18.3333 3.14255 18.3333 2.6204 18.1467 2.35944C17.9736 2.11745 17.7502 1.98485 17.4549 1.94868C17.1364 1.90967 16.6502 2.17475 15.6776 2.7049C14.0106 3.61366 11.8498 4.56055 10.0833 4.56055Z" stroke="#946CFF" stroke-width="2" stroke-linecap="round" stroke-linejoin="round"/>
</svg>
