<svg width="22" height="21" viewBox="0 0 22 21" fill="none" xmlns="http://www.w3.org/2000/svg">
<path d="M11 19.0605L10.8999 18.9105C10.2053 17.8685 9.85798 17.3475 9.3991 16.9704C8.99286 16.6365 8.52476 16.386 8.02161 16.2332C7.45325 16.0605 6.82711 16.0605 5.57482 16.0605H4.2C3.07989 16.0605 2.51984 16.0605 2.09202 15.8426C1.71569 15.6508 1.40973 15.3449 1.21799 14.9685C1 14.5407 1 13.9807 1 12.8605V4.26055C1 3.14044 1 2.58039 1.21799 2.15257C1.40973 1.77624 1.71569 1.47028 2.09202 1.27853C2.51984 1.06055 3.07989 1.06055 4.2 1.06055H4.6C6.84021 1.06055 7.96031 1.06055 8.81596 1.49652C9.56861 1.88001 10.1805 2.49194 10.564 3.24458C11 4.10023 11 5.22034 11 7.46055M11 19.0605V7.46055M11 19.0605L11.1001 18.9105C11.7947 17.8685 12.142 17.3475 12.6009 16.9704C13.0071 16.6365 13.4752 16.386 13.9784 16.2332C14.5467 16.0605 15.1729 16.0605 16.4252 16.0605H17.8C18.9201 16.0605 19.4802 16.0605 19.908 15.8426C20.2843 15.6508 20.5903 15.3449 20.782 14.9685C21 14.5407 21 13.9807 21 12.8605V4.26055C21 3.14044 21 2.58039 20.782 2.15257C20.5903 1.77624 20.2843 1.47028 19.908 1.27853C19.4802 1.06055 18.9201 1.06055 17.8 1.06055H17.4C15.1598 1.06055 14.0397 1.06055 13.184 1.49652C12.4314 1.88001 11.8195 2.49194 11.436 3.24458C11 4.10023 11 5.22034 11 7.46055" stroke="#946CFF" stroke-width="2" stroke-linecap="round" stroke-linejoin="round"/>
</svg>
