<svg width="146" height="41" viewBox="0 0 146 41" fill="none" xmlns="http://www.w3.org/2000/svg">
<path d="M132.56 26.1963H128.218V6.7998H132.85L139.132 16.527L140.753 19.1325H141.042L140.985 16.527V6.7998H145.327V26.1963H140.695L134.673 17.0191L132.792 14.0373H132.502L132.56 17.0191V26.1963Z" fill="#111111"/>
<path d="M115.882 26.4857C110.324 26.4857 107.284 22.6933 107.284 16.498C107.284 10.4474 110.816 6.51025 116.721 6.51025C122.483 6.51025 125.58 9.34735 125.58 13.9504V14.0951H120.977V13.9793C120.977 11.5475 119.79 10.708 116.635 10.708C113.305 10.708 111.916 11.9239 111.916 16.498C111.916 21.1589 113.392 22.3459 117.04 22.3459C120.109 22.3459 121.469 21.8248 121.469 19.5088H116.171V15.89H125.638V26.1962H121.614V23.2433H121.44C120.861 24.7198 119.327 26.4857 115.882 26.4857Z" fill="#111111"/>
<path d="M105.222 26.1963H100.879V6.7998H105.222V26.1963Z" fill="#111111"/>
<path d="M91.5471 26.4857C85.8439 26.4857 83.2095 24.1697 83.2095 19.8851V19.5088H87.4651V19.7983C87.4651 21.9406 88.2468 22.5485 91.7497 22.5485C94.2104 22.5485 94.8184 22.0564 94.8184 20.7536C94.8184 19.4509 94.5289 18.9877 91.8076 18.5245L88.3915 17.9165C84.6859 17.2796 83.1226 15.3979 83.1226 12.3871C83.1226 9.4342 85.2939 6.51025 90.8523 6.51025C96.3817 6.51025 98.6977 9.3763 98.6977 13.2266V13.4582H94.4131V13.1398C94.4131 11.1133 93.5735 10.4474 90.7075 10.4474C88.2178 10.4474 87.4362 10.9975 87.4362 12.2134C87.4362 13.4582 87.9573 13.7477 90.2154 14.182L93.6604 14.8478C97.7423 15.6295 99.1319 17.7718 99.1319 20.6089C99.1319 23.7065 97.0475 26.4857 91.5471 26.4857Z" fill="#111111"/>
<path d="M81.1248 26.1963H66.3314V6.7998H81.1248V10.708H70.6739V14.5005H80.6906V18.3798H70.6739V22.288H81.1248V26.1963Z" fill="#111111"/>
<path d="M54.3202 26.1963H46.909V6.7998H54.3202C60.5444 6.7998 64.3658 10.4185 64.3658 16.498C64.3658 22.5775 60.5444 26.1963 54.3202 26.1963ZM54.2623 10.708H51.2515V22.288H54.2623C58.1995 22.288 59.7049 21.1011 59.7049 16.498C59.7049 11.895 58.1995 10.708 54.2623 10.708Z" fill="#111111"/>
<path d="M139.999 40.2497H135.676V28.9351H139.999C143.63 28.9351 145.859 31.046 145.859 34.5924C145.859 38.1387 143.63 40.2497 139.999 40.2497ZM139.965 31.2149H138.209V37.9699H139.965C142.262 37.9699 143.14 37.2775 143.14 34.5924C143.14 31.9073 142.262 31.2149 139.965 31.2149Z" fill="#111111"/>
<path d="M125.759 40.2497H123.124L127.295 28.9351H130.977L135.148 40.2497H132.395L131.483 37.7334H126.687L125.759 40.2497ZM128.157 33.7142L127.515 35.4705H130.656L130.014 33.7142L129.187 31.1642H129.018L128.157 33.7142Z" fill="#111111"/>
<path d="M117.033 40.2497H114.5V28.9351H119.702C122.133 28.9351 123.873 30.4043 123.873 32.9205C123.873 35.4536 122.133 36.8891 119.702 36.8891H117.033V40.2497ZM119.803 31.2149H117.033V34.6261H119.803C120.968 34.6261 121.357 34.2715 121.357 32.9205C121.357 31.5526 120.968 31.2149 119.803 31.2149Z" fill="#111111"/>
<path d="M105.407 40.2497H102.874V28.9351H105.407V33.4271H110.338V28.9351H112.871V40.2497H110.338V35.69H105.407V40.2497Z" fill="#111111"/>
<path d="M96.4969 40.4185C93.1025 40.4185 91.076 38.1218 91.076 34.5923C91.076 31.0628 93.1025 28.7661 96.4969 28.7661C99.8406 28.7661 101.648 30.5224 101.648 33.3257V33.4777H98.9456V33.3933C98.9456 31.7721 98.2701 31.2148 96.48 31.2148C94.5718 31.2148 93.778 31.9072 93.778 34.5923C93.778 37.2774 94.5718 37.9698 96.48 37.9698C98.2701 37.9698 98.9456 37.4125 98.9456 35.7913V35.7069H101.648V35.8588C101.648 38.6622 99.8406 40.4185 96.4969 40.4185Z" fill="#111111"/>
<path d="M82.3678 40.2497H79.8347V28.9351H82.5367L86.2013 34.6092L87.147 36.1291H87.3159L87.2821 34.6092V28.9351H89.8152V40.2497H87.1132L83.6006 34.8963L82.5029 33.1569H82.3341L82.3678 34.8963V40.2497Z" fill="#111111"/>
<path d="M73.3038 40.4185C70.0107 40.4185 68.3389 38.6622 68.3389 35.842V28.9351H70.8551V35.8083C70.8551 37.4295 71.4293 37.9699 73.3038 37.9699C75.1614 37.9699 75.7356 37.4295 75.7356 35.8083V28.9351H78.2687V35.842C78.2687 38.6622 76.5968 40.4185 73.3038 40.4185Z" fill="#111111"/>
<path d="M58.4725 40.2497H55.8381L60.0093 28.9351H63.6907L67.8619 40.2497H65.1093L64.1974 37.7334H59.4013L58.4725 40.2497ZM60.8705 33.7142L60.2288 35.4705H63.3699L62.7282 33.7142L61.9007 31.1642H61.7318L60.8705 33.7142Z" fill="#111111"/>
<path d="M55.5244 40.2497H47.1483V28.9351H49.6814V37.9699H55.5244V40.2497Z" fill="#111111"/>
<path fill-rule="evenodd" clip-rule="evenodd" d="M28.7548 23.7412L23.7585 35.6607C23.2094 36.9708 21.2753 36.692 21.1206 35.2801L20.4402 29.1323C20.4153 28.9068 20.335 28.691 20.2065 28.5041C20.078 28.3171 19.9053 28.1648 19.7037 28.0607C19.5022 27.9566 19.278 27.9039 19.0512 27.9074C18.8244 27.9108 18.6019 27.9703 18.4036 28.0805L2.04973 40.1756C0.907442 40.8099 -0.393064 39.6435 0.112097 38.4398L11.9844 22.2559C12.0721 22.0467 12.1068 21.8191 12.0853 21.5933C12.0638 21.3675 11.9868 21.1506 11.8612 20.9617C11.7357 20.7728 11.5654 20.6179 11.3655 20.5107C11.1656 20.4035 10.9423 20.3474 10.7155 20.3473L4.44073 20.3456C3.02174 20.3456 2.53112 18.4551 3.77274 17.7655L15.0736 11.4889C15.3237 11.3498 15.6109 11.2922 15.8953 11.3239C16.1797 11.3557 16.4472 11.4754 16.6604 11.6663L28.4025 22.1832C28.616 22.3739 28.7647 22.6266 28.8279 22.9058C28.891 23.1851 28.8655 23.4771 28.7548 23.7412Z" fill="#111111"/>
<path fill-rule="evenodd" clip-rule="evenodd" d="M38.6047 4.197L33.5212 16.3209C32.7308 18.206 30.3178 18.7502 28.7949 17.3851L22.3835 11.6446C20.8606 10.2806 21.1362 7.82181 22.9238 6.82923L34.4176 0.446961C36.8867 -0.92343 39.6963 1.59351 38.6047 4.197Z" fill="#111111"/>
</svg>
