<svg width="109" height="31" viewBox="0 0 109 31" fill="none" xmlns="http://www.w3.org/2000/svg">
<path d="M98.3732 19.9307H95.1653V5.60205H98.5871L103.228 12.7878L104.425 14.7125H104.639L104.597 12.7878V5.60205H107.804V19.9307H104.383L99.9344 13.1513L98.5443 10.9486H98.3304L98.3732 13.1513V19.9307Z" fill="white"/>
<path d="M86.0526 20.1446C81.9465 20.1446 79.701 17.343 79.701 12.7664C79.701 8.29669 82.3101 5.38818 86.6728 5.38818C90.9286 5.38818 93.217 7.48402 93.217 10.8844V10.9913H89.8166V10.9058C89.8166 9.10936 88.9397 8.48916 86.6087 8.48916C84.1493 8.48916 83.1227 9.38738 83.1227 12.7664C83.1227 16.2095 84.2134 17.0864 86.9081 17.0864C89.175 17.0864 90.1801 16.7014 90.1801 14.9905H86.2665V12.3173H93.2597V19.9307H90.2871V17.7493H90.1587C89.731 18.84 88.5976 20.1446 86.0526 20.1446Z" fill="white"/>
<path d="M78.1775 19.9307H74.9696V5.60205H78.1775V19.9307Z" fill="white"/>
<path d="M68.0758 20.1446C63.8627 20.1446 61.9166 18.4337 61.9166 15.2686V14.9905H65.0604V15.2044C65.0604 16.787 65.6378 17.2361 68.2255 17.2361C70.0433 17.2361 70.4924 16.8725 70.4924 15.9101C70.4924 14.9478 70.2786 14.6056 68.2683 14.2634L65.7447 13.8143C63.0073 13.3438 61.8524 11.9537 61.8524 9.72956C61.8524 7.54818 63.4564 5.38818 67.5625 5.38818C71.6473 5.38818 73.3582 7.5054 73.3582 10.3498V10.5208H70.193V10.2856C70.193 8.78857 69.5728 8.29669 67.4556 8.29669C65.6164 8.29669 65.039 8.70303 65.039 9.60124C65.039 10.5208 65.4239 10.7347 67.092 11.0555L69.637 11.5474C72.6524 12.1248 73.6789 13.7074 73.6789 15.8032C73.6789 18.0915 72.1392 20.1446 68.0758 20.1446Z" fill="white"/>
<path d="M60.3766 19.9307H49.4483V5.60205H60.3766V8.48917H52.6562V11.2907H60.0558V14.1565H52.6562V17.0436H60.3766V19.9307Z" fill="white"/>
<path d="M40.5753 19.9307H35.1005V5.60205H40.5753C45.1733 5.60205 47.9963 8.27531 47.9963 12.7664C47.9963 17.2575 45.1733 19.9307 40.5753 19.9307ZM40.5326 8.48917H38.3084V17.0436H40.5326C43.4411 17.0436 44.5531 16.1668 44.5531 12.7664C44.5531 9.366 43.4411 8.48917 40.5326 8.48917Z" fill="white"/>
<path d="M103.868 30.3125H100.675V21.9541H103.868C106.551 21.9541 108.197 23.5135 108.197 26.1333C108.197 28.7531 106.551 30.3125 103.868 30.3125ZM103.843 23.6383H102.546V28.6283H103.843C105.54 28.6283 106.189 28.1169 106.189 26.1333C106.189 24.1497 105.54 23.6383 103.843 23.6383Z" fill="white"/>
<path d="M93.3488 30.3125H91.4026L94.484 21.9541H97.2036L100.285 30.3125H98.2515L97.5779 28.4537H94.0349L93.3488 30.3125ZM95.1202 25.4846L94.6462 26.782H96.9666L96.4925 25.4846L95.8812 23.6008H95.7565L95.1202 25.4846Z" fill="white"/>
<path d="M86.9032 30.3125H85.0319V21.9541H88.8743C90.6707 21.9541 91.9556 23.0394 91.9556 24.8983C91.9556 26.7695 90.6707 27.8299 88.8743 27.8299H86.9032V30.3125ZM88.9491 23.6383H86.9032V26.1582H88.9491C89.8099 26.1582 90.0968 25.8963 90.0968 24.8983C90.0968 23.8878 89.8099 23.6383 88.9491 23.6383Z" fill="white"/>
<path d="M78.3143 30.3125H76.443V21.9541H78.3143V25.2725H81.9571V21.9541H83.8284V30.3125H81.9571V26.9442H78.3143V30.3125Z" fill="white"/>
<path d="M71.7324 30.437C69.2249 30.437 67.7279 28.7404 67.7279 26.133C67.7279 23.5257 69.2249 21.8291 71.7324 21.8291C74.2025 21.8291 75.5374 23.1265 75.5374 25.1974V25.3097H73.5413V25.2473C73.5413 24.0497 73.0423 23.638 71.72 23.638C70.3103 23.638 69.7239 24.1495 69.7239 26.133C69.7239 28.1166 70.3103 28.6281 71.72 28.6281C73.0423 28.6281 73.5413 28.2164 73.5413 27.0188V26.9564H75.5374V27.0687C75.5374 29.1396 74.2025 30.437 71.7324 30.437Z" fill="white"/>
<path d="M61.2949 30.3125H59.4236V21.9541H61.4197L64.1268 26.1458L64.8254 27.2685H64.9502L64.9252 26.1458V21.9541H66.7965V30.3125H64.8005L62.2056 26.3579L61.3947 25.0729H61.27L61.2949 26.3579V30.3125Z" fill="white"/>
<path d="M54.599 30.4372C52.1664 30.4372 50.9313 29.1398 50.9313 27.0565V21.9541H52.7901V27.0315C52.7901 28.2291 53.2143 28.6283 54.599 28.6283C55.9713 28.6283 56.3955 28.2291 56.3955 27.0315V21.9541H58.2667V27.0565C58.2667 29.1398 57.0317 30.4372 54.599 30.4372Z" fill="white"/>
<path d="M43.6428 30.3125H41.6966L44.778 21.9541H47.4976L50.579 30.3125H48.5455L47.8719 28.4537H44.3289L43.6428 30.3125ZM45.4143 25.4846L44.9402 26.782H47.2606L46.7865 25.4846L46.1752 23.6008H46.0505L45.4143 25.4846Z" fill="white"/>
<path d="M41.465 30.3125H35.2773V21.9541H37.1485V28.6283H41.465V30.3125Z" fill="white"/>
<path fill-rule="evenodd" clip-rule="evenodd" d="M21.6895 18.1172L17.9986 26.9225C17.5929 27.8903 16.1642 27.6843 16.0499 26.6413L15.5473 22.0998C15.5289 21.9332 15.4696 21.7738 15.3746 21.6357C15.2797 21.4976 15.1521 21.3851 15.0032 21.3082C14.8543 21.2313 14.6887 21.1924 14.5212 21.1949C14.3536 21.1975 14.1893 21.2414 14.0428 21.3228L1.96176 30.2578C1.11792 30.7263 0.157204 29.8647 0.53038 28.9755L9.30079 17.02C9.36557 16.8655 9.39115 16.6973 9.37528 16.5305C9.3594 16.3637 9.30255 16.2035 9.20978 16.0639C9.11702 15.9244 8.99121 15.81 8.84355 15.7308C8.69589 15.6516 8.53095 15.6102 8.3634 15.6101L3.72805 15.6088C2.67981 15.6088 2.31738 14.2123 3.23459 13.7028L11.5828 9.06616C11.7676 8.9634 11.9798 8.9208 12.1899 8.94428C12.4 8.96777 12.5975 9.05617 12.755 9.19719L21.4293 16.9663C21.587 17.1072 21.6968 17.2938 21.7435 17.5001C21.7901 17.7064 21.7713 17.9222 21.6895 18.1172Z" fill="white"/>
<path fill-rule="evenodd" clip-rule="evenodd" d="M28.9659 3.67924L25.2105 12.6355C24.6267 14.0281 22.8441 14.4301 21.7191 13.4216L16.9829 9.18096C15.8578 8.17334 16.0615 6.35699 17.382 5.62374L25.8728 0.90899C27.6967 -0.103354 29.7722 1.75597 28.9659 3.67924Z" fill="white"/>
</svg>
