<svg width="66" height="81" viewBox="0 0 66 81" fill="none" xmlns="http://www.w3.org/2000/svg">
<g clip-path="url(#clip0_281_8170)" filter="url(#filter0_dd_281_8170)">
<path d="M25.9856 43.018C29.8456 43.018 32.9784 39.8851 32.9784 36.025V29.0322H25.9856C22.1256 29.0322 18.9928 32.165 18.9928 36.025C18.9928 39.8851 22.1256 43.018 25.9856 43.018Z" fill="#0ACF83"/>
<path d="M18.9928 22.0392C18.9928 18.1792 22.1256 15.0464 25.9856 15.0464H32.9784V29.032H25.9856C22.1256 29.032 18.9928 25.8992 18.9928 22.0392Z" fill="#A259FF"/>
<path d="M18.9928 8.05333C18.9928 4.19332 22.1256 1.06055 25.9856 1.06055H32.9784V15.0462H25.9856C22.1256 15.0462 18.9928 11.9134 18.9928 8.05333Z" fill="#F24E1E"/>
<path d="M32.9784 1.06055H39.9712C43.8312 1.06055 46.964 4.19332 46.964 8.05333C46.964 11.9134 43.8312 15.0462 39.9712 15.0462H32.9784V1.06055Z" fill="#FF7262"/>
<path d="M46.964 22.0392C46.964 25.8992 43.8312 29.032 39.9712 29.032C36.1112 29.032 32.9784 25.8992 32.9784 22.0392C32.9784 18.1792 36.1112 15.0464 39.9712 15.0464C43.8312 15.0464 46.964 18.1792 46.964 22.0392Z" fill="#1ABCFE"/>
</g>
<defs>
<filter id="filter0_dd_281_8170" x="-7" y="0.0605469" width="79.9568" height="79.957" filterUnits="userSpaceOnUse" color-interpolation-filters="sRGB">
<feFlood flood-opacity="0" result="BackgroundImageFix"/>
<feColorMatrix in="SourceAlpha" type="matrix" values="0 0 0 0 0 0 0 0 0 0 0 0 0 0 0 0 0 0 127 0" result="hardAlpha"/>
<feMorphology radius="5" operator="erode" in="SourceAlpha" result="effect1_dropShadow_281_8170"/>
<feOffset dy="8"/>
<feGaussianBlur stdDeviation="4"/>
<feColorMatrix type="matrix" values="0 0 0 0 0.0784314 0 0 0 0 0.0823529 0 0 0 0 0.101961 0 0 0 0.05 0"/>
<feBlend mode="normal" in2="BackgroundImageFix" result="effect1_dropShadow_281_8170"/>
<feColorMatrix in="SourceAlpha" type="matrix" values="0 0 0 0 0 0 0 0 0 0 0 0 0 0 0 0 0 0 127 0" result="hardAlpha"/>
<feMorphology radius="5" operator="erode" in="SourceAlpha" result="effect2_dropShadow_281_8170"/>
<feOffset dy="18"/>
<feGaussianBlur stdDeviation="12"/>
<feColorMatrix type="matrix" values="0 0 0 0 0.0784314 0 0 0 0 0.0823529 0 0 0 0 0.101961 0 0 0 0.1 0"/>
<feBlend mode="normal" in2="effect1_dropShadow_281_8170" result="effect2_dropShadow_281_8170"/>
<feBlend mode="normal" in="SourceGraphic" in2="effect2_dropShadow_281_8170" result="shape"/>
</filter>
<clipPath id="clip0_281_8170">
<rect width="41.9568" height="41.9568" fill="white" transform="translate(12 1.06055)"/>
</clipPath>
</defs>
</svg>
