<svg width="23" height="23" viewBox="0 0 23 23" fill="none" xmlns="http://www.w3.org/2000/svg">
<path d="M12.5 2.98193L14.2342 7.4908C14.5162 8.22403 14.6572 8.59064 14.8765 8.89902C15.0708 9.17233 15.3096 9.41112 15.5829 9.60546C15.8913 9.82474 16.2579 9.96574 16.9911 10.2478L21.5 11.9819L16.9911 13.7161C16.2579 13.9981 15.8913 14.1391 15.5829 14.3584C15.3096 14.5527 15.0708 14.7915 14.8765 15.0648C14.6572 15.3732 14.5162 15.7398 14.2342 16.4731L12.5 20.9819L10.7658 16.4731C10.4838 15.7398 10.3428 15.3732 10.1235 15.0648C9.92919 14.7915 9.6904 14.5527 9.41709 14.3584C9.10871 14.1391 8.74209 13.9981 8.00886 13.7161L3.5 11.9819L8.00886 10.2478C8.74209 9.96574 9.10871 9.82474 9.41709 9.60546C9.6904 9.41112 9.92919 9.17233 10.1235 8.89902C10.3428 8.59064 10.4838 8.22403 10.7658 7.4908L12.5 2.98193Z" fill="#946CFF"/>
<path d="M4 21.9819V16.9819M4 6.98193V1.98193M1.5 4.48193H6.5M1.5 19.4819H6.5M12.5 2.98193L10.7658 7.4908C10.4838 8.22403 10.3428 8.59064 10.1235 8.89902C9.92919 9.17233 9.6904 9.41112 9.41709 9.60546C9.10871 9.82474 8.74209 9.96574 8.00886 10.2478L3.5 11.9819L8.00886 13.7161C8.74209 13.9981 9.10871 14.1391 9.41709 14.3584C9.6904 14.5527 9.92919 14.7915 10.1235 15.0648C10.3428 15.3732 10.4838 15.7398 10.7658 16.4731L12.5 20.9819L14.2342 16.4731C14.5162 15.7398 14.6572 15.3732 14.8765 15.0648C15.0708 14.7915 15.3096 14.5527 15.5829 14.3584C15.8913 14.1391 16.2579 13.9981 16.9911 13.7161L21.5 11.9819L16.9911 10.2478C16.2579 9.96574 15.8913 9.82474 15.5829 9.60546C15.3096 9.41112 15.0708 9.17233 14.8765 8.89902C14.6572 8.59064 14.5162 8.22403 14.2342 7.4908L12.5 2.98193Z" stroke="#946CFF" stroke-width="2" stroke-linecap="round" stroke-linejoin="round"/>
</svg>
