<svg width="19" height="23" viewBox="0 0 19 23" fill="none" xmlns="http://www.w3.org/2000/svg">
<path d="M17.1666 18.0605V15.0605H4.16663C2.50977 15.0605 1.16663 16.4037 1.16663 18.0605M5.96663 21.0605H13.9666C15.0867 21.0605 15.6468 21.0605 16.0746 20.8426C16.4509 20.6508 16.7569 20.3449 16.9486 19.9685C17.1666 19.5407 17.1666 18.9807 17.1666 17.8605V4.26055C17.1666 3.14044 17.1666 2.58039 16.9486 2.15257C16.7569 1.77624 16.4509 1.47028 16.0746 1.27853C15.6468 1.06055 15.0867 1.06055 13.9666 1.06055H5.96663C4.28647 1.06055 3.44639 1.06055 2.80465 1.38753C2.24017 1.67515 1.78123 2.13409 1.49361 2.69858C1.16663 3.34031 1.16663 4.18039 1.16663 5.86055V16.2605C1.16663 17.9407 1.16663 18.7808 1.49361 19.4225C1.78123 19.987 2.24017 20.4459 2.80465 20.7336C3.44639 21.0605 4.28647 21.0605 5.96663 21.0605Z" stroke="#946CFF" stroke-width="2" stroke-linecap="round" stroke-linejoin="round"/>
</svg>
