<svg width="44" height="44" viewBox="0 0 44 44" fill="none" xmlns="http://www.w3.org/2000/svg">
<path fill-rule="evenodd" clip-rule="evenodd" d="M32.5691 25.8587L26.9101 38.8746C26.2881 40.3052 24.0975 40.0007 23.9223 38.459L23.1516 31.7457C23.1234 31.4995 23.0324 31.2638 22.8869 31.0597C22.7414 30.8555 22.5457 30.6892 22.3174 30.5755C22.0891 30.4619 21.8352 30.4043 21.5783 30.4081C21.3214 30.4119 21.0694 30.4768 20.8448 30.5971L2.32163 43.8048C1.02781 44.4974 -0.445204 43.2237 0.126967 41.9093L13.5742 24.2368C13.6735 24.0084 13.7127 23.7598 13.6884 23.5133C13.664 23.2667 13.5769 23.0298 13.4346 22.8236C13.2924 22.6173 13.0995 22.4481 12.8731 22.3311C12.6467 22.2141 12.3938 22.1528 12.1369 22.1527L5.02979 22.1508C3.42257 22.1508 2.86688 20.0864 4.27319 19.3334L17.0731 12.4795C17.3564 12.3276 17.6817 12.2646 18.0038 12.2993C18.326 12.3341 18.6289 12.4647 18.8704 12.6732L32.1701 24.1574C32.412 24.3657 32.5804 24.6416 32.6519 24.9465C32.7234 25.2515 32.6945 25.5704 32.5691 25.8587Z" fill="#111111"/>
<path fill-rule="evenodd" clip-rule="evenodd" d="M43.7256 4.51692L37.9677 17.7559C37.0725 19.8144 34.3394 20.4087 32.6144 18.9181L25.3526 12.6495C23.6277 11.1601 23.9399 8.47514 25.9646 7.39126L38.983 0.421957C41.7796 -1.07448 44.9619 1.67396 43.7256 4.51692Z" fill="#111111"/>
</svg>
