<svg width="23" height="23" viewBox="0 0 23 23" fill="none" xmlns="http://www.w3.org/2000/svg">
<path d="M5.5 14.0605L7.5 16.0605L12 11.5605M7.5 7.06055V4.26055C7.5 3.14044 7.5 2.58039 7.71799 2.15257C7.90973 1.77624 8.21569 1.47028 8.59202 1.27853C9.01984 1.06055 9.57989 1.06055 10.7 1.06055H18.3C19.4201 1.06055 19.9802 1.06055 20.408 1.27853C20.7843 1.47028 21.0903 1.77624 21.282 2.15257C21.5 2.58039 21.5 3.14044 21.5 4.26055V11.8605C21.5 12.9807 21.5 13.5407 21.282 13.9685C21.0903 14.3449 20.7843 14.6508 20.408 14.8426C19.9802 15.0605 19.4201 15.0605 18.3 15.0605H15.5M4.7 21.0605H12.3C13.4201 21.0605 13.9802 21.0605 14.408 20.8426C14.7843 20.6508 15.0903 20.3449 15.282 19.9685C15.5 19.5407 15.5 18.9807 15.5 17.8605V10.2605C15.5 9.14044 15.5 8.58039 15.282 8.15257C15.0903 7.77624 14.7843 7.47028 14.408 7.27853C13.9802 7.06055 13.4201 7.06055 12.3 7.06055H4.7C3.5799 7.06055 3.01984 7.06055 2.59202 7.27853C2.21569 7.47028 1.90973 7.77624 1.71799 8.15257C1.5 8.58039 1.5 9.14044 1.5 10.2605V17.8605C1.5 18.9807 1.5 19.5407 1.71799 19.9685C1.90973 20.3449 2.21569 20.6508 2.59202 20.8426C3.01984 21.0605 3.57989 21.0605 4.7 21.0605Z" stroke="#946CFF" stroke-width="2" stroke-linecap="round" stroke-linejoin="round"/>
</svg>
