<svg width="76" height="75" viewBox="0 0 76 75" fill="none" xmlns="http://www.w3.org/2000/svg">
<g clip-path="url(#clip0_281_8180)" filter="url(#filter0_dd_281_8180)">
<path d="M26.1281 1.42822H49.8719C53.4717 1.42822 56.3822 4.33874 56.3822 7.93858V30.7632C56.3822 34.363 53.4717 37.2735 49.8719 37.2735H26.1281C22.5283 37.2735 19.6178 34.363 19.6178 30.7632V7.93858C19.6178 4.33874 22.5283 1.42822 26.1281 1.42822Z" fill="#001E36"/>
<path d="M27.8898 26.5661V10.8034C27.8898 10.6962 27.9358 10.6349 28.043 10.6349C28.3034 10.6349 28.5485 10.6349 28.9008 10.6196C29.2685 10.6043 29.6514 10.6043 30.065 10.5889C30.4786 10.5736 30.9229 10.5736 31.3977 10.5583C31.8726 10.543 32.3322 10.543 32.7917 10.543C34.0478 10.543 35.0895 10.6962 35.9473 11.0179C36.7133 11.2783 37.4179 11.7072 38 12.274C38.4902 12.7642 38.8732 13.3616 39.1183 14.0203C39.3481 14.6637 39.4706 15.3223 39.4706 16.0117C39.4706 17.3291 39.1642 18.4167 38.5515 19.2745C37.9387 20.1324 37.0809 20.7758 36.0852 21.1434C35.0435 21.5263 33.8946 21.6642 32.6385 21.6642C32.2709 21.6642 32.0258 21.6642 31.8726 21.6489C31.7194 21.6336 31.505 21.6336 31.2139 21.6336V26.5508C31.2292 26.6581 31.1526 26.75 31.0454 26.7653C31.0301 26.7653 31.0148 26.7653 30.9842 26.7653H28.0736C27.9511 26.7653 27.8898 26.704 27.8898 26.5661ZM31.2292 13.5914V18.7384C31.4437 18.7537 31.6428 18.769 31.8266 18.769H32.6385C33.236 18.769 33.8334 18.6771 34.4002 18.4933C34.8904 18.3554 35.3193 18.0644 35.6563 17.6814C35.978 17.2984 36.1312 16.7776 36.1312 16.1036C36.1465 15.6287 36.0239 15.1539 35.7788 14.7403C35.5184 14.342 35.1508 14.0356 34.7065 13.8671C34.1397 13.6373 33.527 13.5454 32.899 13.5607C32.5007 13.5607 32.1483 13.5607 31.8573 13.576C31.5509 13.5607 31.3365 13.576 31.2292 13.5914Z" fill="#31A8FF"/>
<path d="M49.0293 17.8038C48.5698 17.5587 48.0796 17.3902 47.5588 17.2829C46.992 17.1604 46.4252 17.0838 45.8431 17.0838C45.5367 17.0685 45.215 17.1145 44.924 17.191C44.7248 17.237 44.5563 17.3442 44.4491 17.4974C44.3725 17.62 44.3265 17.7732 44.3265 17.911C44.3265 18.0489 44.3878 18.1867 44.4797 18.3093C44.6176 18.4778 44.8014 18.6157 45.0005 18.7229C45.3529 18.9067 45.7205 19.0752 46.0882 19.2284C46.9154 19.5041 47.7119 19.8871 48.4472 20.3467C48.9527 20.6684 49.3663 21.0973 49.6574 21.6181C49.9025 22.1083 50.025 22.6444 50.0097 23.1959C50.025 23.9159 49.8106 24.6358 49.4123 25.2333C48.9834 25.846 48.386 26.3209 47.6966 26.5966C46.946 26.9183 46.0269 27.0868 44.924 27.0868C44.2193 27.0868 43.53 27.0255 42.8406 26.8877C42.3045 26.7957 41.7684 26.6272 41.2781 26.3975C41.1709 26.3362 41.0943 26.229 41.1097 26.1064V23.441C41.1097 23.395 41.125 23.3338 41.1709 23.3031C41.2169 23.2725 41.2628 23.2878 41.3088 23.3185C41.9062 23.6708 42.5343 23.9159 43.2083 24.0691C43.7904 24.2222 44.4031 24.2988 45.0159 24.2988C45.598 24.2988 46.0116 24.2222 46.2873 24.0844C46.5324 23.9771 46.7009 23.7167 46.7009 23.441C46.7009 23.2265 46.5784 23.0274 46.3332 22.8282C46.0882 22.6291 45.5827 22.3993 44.832 22.1083C44.0508 21.8325 43.3308 21.4649 42.6568 21.0053C42.182 20.6684 41.7837 20.2241 41.4926 19.7033C41.2475 19.2131 41.125 18.6769 41.1403 18.1408C41.1403 17.4821 41.3241 16.8541 41.6611 16.2873C42.0441 15.6745 42.6109 15.1843 43.2696 14.878C43.9895 14.5103 44.8933 14.3418 45.9809 14.3418C46.609 14.3418 47.2524 14.3878 47.8804 14.4797C48.34 14.5409 48.7842 14.6635 49.1978 14.832C49.2591 14.8473 49.3204 14.9086 49.351 14.9699C49.3663 15.0311 49.3816 15.0924 49.3816 15.1537V17.6506C49.3816 17.7119 49.351 17.7732 49.3051 17.8038C49.1672 17.8344 49.0906 17.8344 49.0293 17.8038Z" fill="#31A8FF"/>
</g>
<defs>
<filter id="filter0_dd_281_8180" x="0.617798" y="0.0605469" width="74.7644" height="74.7646" filterUnits="userSpaceOnUse" color-interpolation-filters="sRGB">
<feFlood flood-opacity="0" result="BackgroundImageFix"/>
<feColorMatrix in="SourceAlpha" type="matrix" values="0 0 0 0 0 0 0 0 0 0 0 0 0 0 0 0 0 0 127 0" result="hardAlpha"/>
<feMorphology radius="5" operator="erode" in="SourceAlpha" result="effect1_dropShadow_281_8180"/>
<feOffset dy="8"/>
<feGaussianBlur stdDeviation="4"/>
<feColorMatrix type="matrix" values="0 0 0 0 0.0784314 0 0 0 0 0.0823529 0 0 0 0 0.101961 0 0 0 0.05 0"/>
<feBlend mode="normal" in2="BackgroundImageFix" result="effect1_dropShadow_281_8180"/>
<feColorMatrix in="SourceAlpha" type="matrix" values="0 0 0 0 0 0 0 0 0 0 0 0 0 0 0 0 0 0 127 0" result="hardAlpha"/>
<feMorphology radius="5" operator="erode" in="SourceAlpha" result="effect2_dropShadow_281_8180"/>
<feOffset dy="18"/>
<feGaussianBlur stdDeviation="12"/>
<feColorMatrix type="matrix" values="0 0 0 0 0.0784314 0 0 0 0 0.0823529 0 0 0 0 0.101961 0 0 0 0.1 0"/>
<feBlend mode="normal" in2="effect1_dropShadow_281_8180" result="effect2_dropShadow_281_8180"/>
<feBlend mode="normal" in="SourceGraphic" in2="effect2_dropShadow_281_8180" result="shape"/>
</filter>
<clipPath id="clip0_281_8180">
<rect width="36.7644" height="36.7644" fill="white" transform="translate(19.6178 1.06055)"/>
</clipPath>
</defs>
</svg>
