<svg width="22" height="17" viewBox="0 0 22 17" fill="none" xmlns="http://www.w3.org/2000/svg">
<path d="M20.5813 3.26043C20.4733 2.82901 20.2534 2.43372 19.9438 2.1145C19.6341 1.79527 19.2457 1.56342 18.8178 1.44235C17.2542 1.06055 11 1.06055 11 1.06055C11 1.06055 4.74578 1.06055 3.18222 1.47871C2.75429 1.59978 2.36588 1.83163 2.05623 2.15086C1.74659 2.47008 1.52666 2.86537 1.41868 3.29679C1.13253 4.88358 0.992553 6.49327 1.00052 8.10564C0.99032 9.73014 1.1303 11.3521 1.41868 12.9508C1.53773 13.3689 1.76258 13.7491 2.0715 14.0549C2.38043 14.3606 2.76299 14.5815 3.18222 14.6962C4.74578 15.1144 11 15.1144 11 15.1144C11 15.1144 17.2542 15.1144 18.8178 14.6962C19.2457 14.5751 19.6341 14.3433 19.9438 14.024C20.2534 13.7048 20.4733 13.3095 20.5813 12.8781C20.8653 11.3033 21.0052 9.70586 20.9995 8.10564C21.0097 6.48113 20.8697 4.85917 20.5813 3.26043Z" stroke="#946CFF" stroke-width="2" stroke-linecap="round" stroke-linejoin="round"/>
<path d="M8.75 5.52588C8.75 5.04859 8.75 4.80995 8.84974 4.67672C8.93666 4.56062 9.06971 4.48798 9.21438 4.47765C9.38038 4.46579 9.58112 4.59484 9.98261 4.85294L13.9254 7.3876C14.2738 7.61157 14.448 7.72355 14.5082 7.86594C14.5607 7.99035 14.5607 8.13074 14.5082 8.25516C14.448 8.39755 14.2738 8.50953 13.9254 8.73349L9.9826 11.2682C9.58112 11.5263 9.38038 11.6553 9.21438 11.6434C9.06971 11.6331 8.93666 11.5605 8.84974 11.4444C8.75 11.3111 8.75 11.0725 8.75 10.5952V5.52588Z" stroke="#946CFF" stroke-width="2" stroke-linecap="round" stroke-linejoin="round"/>
</svg>
