<svg width="72" height="38" viewBox="0 0 72 38" fill="none" xmlns="http://www.w3.org/2000/svg">
<g clip-path="url(#clip0_281_8159)">
<g clip-path="url(#clip1_281_8159)">
<path d="M63.056 10.3033C62.826 9.70635 62.354 9.23435 61.757 9.00435L58.263 7.65435C57.232 7.25635 57.251 5.79135 58.291 5.42035L68.906 1.63135C69.853 1.29335 70.767 2.20735 70.429 3.15435L66.64 13.7693C66.269 14.8093 64.804 14.8283 64.406 13.7973L63.056 10.3033Z" fill="#48BF59" stroke="white" stroke-miterlimit="10"/>
</g>
</g>
<rect y="15.0605" width="62" height="22" rx="2" fill="#48BF59"/>
<path d="M12.6719 23.5534C12.6188 23.0828 12.4001 22.7182 12.0156 22.4597C11.6312 22.1979 11.1473 22.0669 10.5639 22.0669C10.1463 22.0669 9.78504 22.1332 9.48011 22.2658C9.17519 22.3951 8.93821 22.574 8.76918 22.8027C8.60346 23.0281 8.5206 23.285 8.5206 23.5733C8.5206 23.8153 8.57694 24.0241 8.68963 24.1998C8.80563 24.3754 8.95644 24.5229 9.14205 24.6422C9.33097 24.7582 9.53314 24.856 9.74858 24.9355C9.96402 25.0118 10.1712 25.0748 10.37 25.1245L11.3643 25.383C11.6892 25.4625 12.0223 25.5703 12.3636 25.7061C12.705 25.842 13.0215 26.021 13.3132 26.2431C13.6049 26.4651 13.8402 26.7402 14.0192 27.0684C14.2015 27.3965 14.2926 27.7892 14.2926 28.2466C14.2926 28.8233 14.1435 29.3354 13.8452 29.7828C13.5502 30.2303 13.121 30.5833 12.5575 30.8418C11.9974 31.1003 11.3196 31.2296 10.5241 31.2296C9.76184 31.2296 9.10227 31.1086 8.54545 30.8667C7.98864 30.6247 7.55279 30.2817 7.23793 29.8375C6.92306 29.3901 6.74905 28.8598 6.71591 28.2466H8.2571C8.28693 28.6145 8.40625 28.9211 8.61506 29.1664C8.82718 29.4083 9.0973 29.589 9.42543 29.7083C9.75687 29.8243 10.1198 29.8823 10.5142 29.8823C10.9484 29.8823 11.3345 29.8143 11.6726 29.6784C12.014 29.5392 12.2824 29.347 12.478 29.1017C12.6735 28.8532 12.7713 28.5632 12.7713 28.2317C12.7713 27.9301 12.6851 27.6832 12.5128 27.4909C12.3438 27.2987 12.1134 27.1396 11.8217 27.0137C11.5334 26.8877 11.2069 26.7767 10.8423 26.6806L9.6392 26.3525C8.82386 26.1304 8.17756 25.8039 7.70028 25.373C7.22633 24.9422 6.98935 24.3721 6.98935 23.6628C6.98935 23.0762 7.14844 22.5641 7.46662 22.1266C7.7848 21.6891 8.21567 21.3494 8.75923 21.1074C9.30279 20.8622 9.91596 20.7395 10.5987 20.7395C11.2881 20.7395 11.8963 20.8605 12.4233 21.1025C12.9536 21.3444 13.3712 21.6775 13.6761 22.1017C13.9811 22.5227 14.1402 23.0066 14.1534 23.5534H12.6719ZM17.4116 26.5265V31.0605H15.9251V20.8787H17.3917V24.6671H17.4861C17.6651 24.2561 17.9386 23.9296 18.3064 23.6877C18.6743 23.4457 19.1549 23.3248 19.7482 23.3248C20.2719 23.3248 20.7293 23.4325 21.1204 23.6479C21.5148 23.8633 21.8197 24.1848 22.0351 24.6124C22.2539 25.0366 22.3633 25.5669 22.3633 26.2033V31.0605H20.8768V26.3823C20.8768 25.8221 20.7326 25.388 20.4442 25.0797C20.1559 24.7682 19.7548 24.6124 19.2411 24.6124C18.8898 24.6124 18.5749 24.687 18.2965 24.8361C18.0214 24.9853 17.8043 25.204 17.6452 25.4924C17.4894 25.7774 17.4116 26.1221 17.4116 26.5265ZM26.4852 31.2296C26.0013 31.2296 25.5638 31.1401 25.1727 30.9611C24.7816 30.7788 24.4717 30.5153 24.243 30.1706C24.0177 29.8259 23.905 29.4033 23.905 28.9029C23.905 28.472 23.9878 28.1174 24.1536 27.839C24.3193 27.5605 24.543 27.3401 24.8247 27.1777C25.1064 27.0153 25.4213 26.8927 25.7693 26.8098C26.1173 26.727 26.472 26.664 26.8332 26.6209C27.2906 26.5679 27.6618 26.5248 27.9469 26.4917C28.2319 26.4552 28.4391 26.3972 28.5683 26.3176C28.6976 26.2381 28.7622 26.1088 28.7622 25.9299V25.8951C28.7622 25.4609 28.6396 25.1245 28.3943 24.8858C28.1524 24.6472 27.7911 24.5279 27.3105 24.5279C26.81 24.5279 26.4156 24.6389 26.1273 24.861C25.8422 25.0797 25.645 25.3233 25.5357 25.5918L24.1386 25.2736C24.3044 24.8096 24.5463 24.4351 24.8645 24.15C25.186 23.8617 25.5555 23.6529 25.9732 23.5236C26.3908 23.391 26.8299 23.3248 27.2906 23.3248C27.5956 23.3248 27.9187 23.3612 28.2601 23.4341C28.6048 23.5037 28.9263 23.633 29.2246 23.8219C29.5262 24.0108 29.7731 24.281 29.9653 24.6323C30.1576 24.9803 30.2537 25.4327 30.2537 25.9895V31.0605H28.802V30.0165H28.7423C28.6462 30.2087 28.502 30.3977 28.3098 30.5833C28.1176 30.7689 27.8706 30.923 27.569 31.0456C27.2674 31.1683 26.9062 31.2296 26.4852 31.2296ZM26.8084 30.0364C27.2194 30.0364 27.5707 29.9552 27.8624 29.7928C28.1573 29.6304 28.3811 29.4183 28.5335 29.1564C28.6893 28.8913 28.7672 28.6079 28.7672 28.3063V27.3219C28.7142 27.3749 28.6114 27.4247 28.459 27.4711C28.3098 27.5141 28.1391 27.5523 27.9469 27.5854C27.7546 27.6152 27.5674 27.6434 27.3851 27.6699C27.2028 27.6931 27.0503 27.713 26.9277 27.7296C26.6394 27.766 26.3759 27.8274 26.1372 27.9135C25.9019 27.9997 25.713 28.124 25.5705 28.2864C25.4313 28.4455 25.3617 28.6576 25.3617 28.9228C25.3617 29.2907 25.4975 29.5691 25.7693 29.758C26.0411 29.9436 26.3875 30.0364 26.8084 30.0364ZM33.6361 20.8787V31.0605H32.1496V20.8787H33.6361ZM38.7686 31.2147C38.0527 31.2147 37.4279 31.0506 36.8943 30.7225C36.3607 30.3944 35.9464 29.9353 35.6514 29.3453C35.3564 28.7554 35.2089 28.066 35.2089 27.2772C35.2089 26.485 35.3564 25.7923 35.6514 25.199C35.9464 24.6058 36.3607 24.1451 36.8943 23.8169C37.4279 23.4888 38.0527 23.3248 38.7686 23.3248C39.4845 23.3248 40.1093 23.4888 40.6429 23.8169C41.1765 24.1451 41.5908 24.6058 41.8858 25.199C42.1807 25.7923 42.3282 26.485 42.3282 27.2772C42.3282 28.066 42.1807 28.7554 41.8858 29.3453C41.5908 29.9353 41.1765 30.3944 40.6429 30.7225C40.1093 31.0506 39.4845 31.2147 38.7686 31.2147ZM38.7736 29.9668C39.2376 29.9668 39.622 29.8442 39.927 29.5989C40.2319 29.3536 40.4573 29.0272 40.6031 28.6195C40.7522 28.2118 40.8268 27.7627 40.8268 27.2722C40.8268 26.785 40.7522 26.3375 40.6031 25.9299C40.4573 25.5189 40.2319 25.1891 39.927 24.9405C39.622 24.6919 39.2376 24.5676 38.7736 24.5676C38.3062 24.5676 37.9184 24.6919 37.6102 24.9405C37.3053 25.1891 37.0782 25.5189 36.9291 25.9299C36.7833 26.3375 36.7103 26.785 36.7103 27.2722C36.7103 27.7627 36.7833 28.2118 36.9291 28.6195C37.0782 29.0272 37.3053 29.3536 37.6102 29.5989C37.9184 29.8442 38.3062 29.9668 38.7736 29.9668ZM43.9035 31.0605V23.4242H45.3304V24.6671H45.4248C45.5839 24.2462 45.8441 23.918 46.2054 23.6827C46.5666 23.4441 46.9992 23.3248 47.5029 23.3248C48.0134 23.3248 48.4409 23.4441 48.7856 23.6827C49.1336 23.9213 49.3905 24.2495 49.5562 24.6671H49.6358C49.818 24.2594 50.1081 23.9346 50.5058 23.6926C50.9035 23.4474 51.3775 23.3248 51.9277 23.3248C52.6204 23.3248 53.1855 23.5418 53.623 23.976C54.0638 24.4102 54.2842 25.0648 54.2842 25.9398V31.0605H52.7977V26.079C52.7977 25.562 52.6568 25.1874 52.3751 24.9554C52.0934 24.7234 51.757 24.6074 51.3659 24.6074C50.882 24.6074 50.5058 24.7566 50.2373 25.0549C49.9689 25.3498 49.8346 25.7293 49.8346 26.1934V31.0605H48.3531V25.9846C48.3531 25.5703 48.2238 25.2372 47.9653 24.9853C47.7068 24.7334 47.3704 24.6074 46.9561 24.6074C46.6743 24.6074 46.4142 24.682 46.1755 24.8311C45.9402 24.977 45.7496 25.1808 45.6038 25.4426C45.4613 25.7045 45.39 26.0078 45.39 26.3525V31.0605H43.9035Z" fill="white"/>
<defs>
<clipPath id="clip0_281_8159">
<rect width="15" height="15" fill="white" transform="matrix(-1 0 0 1 72 0.0605469)"/>
</clipPath>
<clipPath id="clip1_281_8159">
<rect width="15" height="15" fill="white" transform="matrix(-1 0 0 1 72 0.0605469)"/>
</clipPath>
</defs>
</svg>
