<svg width="29" height="30" viewBox="0 0 29 30" fill="none" xmlns="http://www.w3.org/2000/svg">
<path d="M6.09216 18.8254C6.09216 20.5026 4.72431 21.8726 3.04688 21.8726C1.36968 21.8726 0 20.5026 0 18.8254C0 17.1482 1.36991 15.7783 3.04711 15.7783H6.09239L6.09216 18.8254ZM7.62727 18.8254C7.62727 17.1482 8.99717 15.7783 10.6744 15.7783C12.3516 15.7783 13.7215 17.148 13.7215 18.8254V26.4529C13.7215 28.1301 12.3518 29.5001 10.6744 29.5001C8.99717 29.5001 7.62727 28.1301 7.62727 26.4529V18.8254Z" fill="#DE1C59"/>
<path d="M10.6744 6.59216C8.99717 6.59216 7.62727 5.22431 7.62727 3.54688C7.62727 1.86968 8.99717 0.5 10.6744 0.5C12.3516 0.5 13.7215 1.86991 13.7215 3.54711V6.59239L10.6744 6.59216ZM10.6744 8.12727C12.3516 8.12727 13.7215 9.49717 13.7215 11.1744C13.7215 12.8516 12.3518 14.2215 10.6744 14.2215H3.04688C1.36968 14.2215 0 12.8518 0 11.1744C0 9.49717 1.36991 8.12727 3.04711 8.12727H10.6744Z" fill="#35C5F0"/>
<path d="M22.9076 11.1744C22.9076 9.49717 24.2755 8.12727 25.9529 8.12727C27.6301 8.12727 29 9.49717 29 11.1744C29 12.8516 27.6301 14.2215 25.9529 14.2215H22.9076V11.1744ZM21.3725 11.1744C21.3725 12.8516 20.0026 14.2215 18.3254 14.2215C16.6482 14.2215 15.2783 12.8518 15.2783 11.1744V3.54688C15.2783 1.86968 16.648 0.5 18.3254 0.5C20.0026 0.5 21.3725 1.86991 21.3725 3.54711V11.1744Z" fill="#2EB57D"/>
<path d="M18.3254 23.4077C20.0026 23.4077 21.3725 24.7755 21.3725 26.4529C21.3725 28.1301 20.0026 29.5001 18.3254 29.5001C16.6482 29.5001 15.2783 28.1301 15.2783 26.4529V23.4077H18.3254ZM18.3254 21.8726C16.6482 21.8726 15.2783 20.5026 15.2783 18.8254C15.2783 17.1482 16.648 15.7783 18.3254 15.7783H25.9529C27.6301 15.7783 29 17.148 29 18.8254C29 20.5026 27.6301 21.8726 25.9529 21.8726H18.3254Z" fill="#EBB02E"/>
</svg>
