<svg width="97" height="97" viewBox="0 0 97 97" fill="none" xmlns="http://www.w3.org/2000/svg">
<g filter="url(#filter0_dd_281_8166)">
<g clip-path="url(#clip0_281_8166)">
<path d="M77.5999 1.96045V59.9605H19.5999V1.96045H77.5999Z" fill="#4353FF"/>
<path d="M58.8808 26.2623C58.8808 26.2623 55.9373 35.4843 55.7198 36.2673C55.6328 35.4988 53.4868 18.9253 53.4868 18.9253C48.4698 18.9253 45.8018 22.4923 44.3808 26.2623C44.3808 26.2623 40.7993 35.5133 40.5093 36.2818C40.4948 35.5568 39.9583 26.3493 39.9583 26.3493C39.6538 21.7238 35.4343 18.9253 32.0123 18.9253L36.1303 44.0248C41.3793 44.0103 44.2068 40.4578 45.6858 36.6733C45.6858 36.6733 48.8323 28.5098 48.9628 28.1473C48.9918 28.4953 51.2248 44.0248 51.2248 44.0248C56.4883 44.0248 59.3303 40.7043 60.8528 37.0648L68.2333 18.9253C63.0278 18.9253 60.2873 22.4778 58.8808 26.2623Z" fill="white"/>
</g>
</g>
<defs>
<filter id="filter0_dd_281_8166" x="0.60022" y="0.960449" width="96" height="96" filterUnits="userSpaceOnUse" color-interpolation-filters="sRGB">
<feFlood flood-opacity="0" result="BackgroundImageFix"/>
<feColorMatrix in="SourceAlpha" type="matrix" values="0 0 0 0 0 0 0 0 0 0 0 0 0 0 0 0 0 0 127 0" result="hardAlpha"/>
<feMorphology radius="5" operator="erode" in="SourceAlpha" result="effect1_dropShadow_281_8166"/>
<feOffset dy="8"/>
<feGaussianBlur stdDeviation="4"/>
<feColorMatrix type="matrix" values="0 0 0 0 0.0784314 0 0 0 0 0.0823529 0 0 0 0 0.101961 0 0 0 0.05 0"/>
<feBlend mode="normal" in2="BackgroundImageFix" result="effect1_dropShadow_281_8166"/>
<feColorMatrix in="SourceAlpha" type="matrix" values="0 0 0 0 0 0 0 0 0 0 0 0 0 0 0 0 0 0 127 0" result="hardAlpha"/>
<feMorphology radius="5" operator="erode" in="SourceAlpha" result="effect2_dropShadow_281_8166"/>
<feOffset dy="18"/>
<feGaussianBlur stdDeviation="12"/>
<feColorMatrix type="matrix" values="0 0 0 0 0.0784314 0 0 0 0 0.0823529 0 0 0 0 0.101961 0 0 0 0.1 0"/>
<feBlend mode="normal" in2="effect1_dropShadow_281_8166" result="effect2_dropShadow_281_8166"/>
<feBlend mode="normal" in="SourceGraphic" in2="effect2_dropShadow_281_8166" result="shape"/>
</filter>
<clipPath id="clip0_281_8166">
<rect x="19.6002" y="1.96045" width="58" height="58" rx="29" fill="white"/>
</clipPath>
</defs>
</svg>
